<?xml version="1.0" encoding="UTF-8"?>
<svg id="Layer_1" xmlns="http://www.w3.org/2000/svg" version="1.1" viewBox="0 0 454.2 115.2">
  <!-- Generator: Adobe Illustrator 30.0.0, SVG Export Plug-In . SVG Version: 2.1.1 Build 123)  -->
  <defs>
    <style>
      .st0 {
        fill: #fff;
      }
    </style>
  </defs>
  <path class="st0" d="M72.7,12.7v19.4h-38.7v14.7h35.1v19.4h-35.1v31.4H10.1V12.7s62.6,0,62.6,0Z"/>
  <path class="st0" d="M91.2,7.3c7,0,12.8,5.7,12.8,12.8s-5.7,13.2-12.8,13.2-13.2-5.7-13.2-13.2,5.8-12.8,13.2-12.8ZM102.7,37v60.7h-23.7v-60.7h23.7Z"/>
  <path class="st0" d="M142.5,81.2c5.9,0,8.9-1.5,8.9-5.3h23.9c-2.2,12.4-11.8,23.1-34,23.1s-32.8-11.8-32.8-31.6,13.6-31.7,32.8-31.7,34,12.1,34.1,31.2v5.3h-42.5c1.1,7.4,4.7,9,9.6,9ZM142.5,53.4c-4.7,0-8.5,2.3-9.6,9.1h18.4c-.9-6.8-3.9-9.1-8.9-9.1h0Z"/>
  <path class="st0" d="M212.9,97.7h-14.7c-11.9,0-16.9-5.8-16.9-17.4V12.7h23.7v58.1c0,5.8,1.7,7.6,7,7.6h.9v19.2h0Z"/>
  <path class="st0" d="M243.7,35.8c8.7,0,15.4,3.5,19.5,9.7V12.7h23.7v85h-23.7v-8.5c-4.1,6.2-10.8,9.7-19.5,9.7-17.1,0-28-13-28-31.6s10.9-31.6,28-31.6h0ZM263.2,70.9v-7c0-4.7-5.5-8.9-11.8-8.9s-11.9,4.5-11.9,12.4,5.5,12.4,11.9,12.4,11.8-4.1,11.8-8.9Z"/>
  <path class="st0" d="M317.8,12.7v44.3h4.6l10.8-20h27.4l-17.6,28.5,21.1,32.2h-28l-13-22.5h-5.3v22.5h-23.7V12.7h23.7Z"/>
  <path class="st0" d="M379.6,7.3c7,0,12.8,5.7,12.8,12.8s-5.7,13.2-12.8,13.2-13.2-5.7-13.2-13.2,5.8-12.8,13.2-12.8ZM391.2,37v60.7h-23.7v-60.7h23.7Z"/>
  <path class="st0" d="M403.7,37v-14.6h23.7v14.6h14.4v19.2h-14.4v17.2c0,5.1,2.2,5.8,6.7,5.8h7.8v18.4h-17.2c-13.2,0-20.9-6.2-20.9-19.1v-22.5h-7v-19.2h7.1Z"/>
</svg>