<?xml version="1.0" encoding="UTF-8"?>
<svg id="Layer_1" xmlns="http://www.w3.org/2000/svg" version="1.1" viewBox="0 0 313.71 76.84">
  <!-- Generator: Adobe Illustrator 29.0.0, SVG Export Plug-In . SVG Version: 2.1.0 Build 186)  -->
  <defs>
    <style>
      .st0 {
        fill: #00ac4e;
      }
    </style>
  </defs>
  <path class="st0" d="M52.69,10.98v13.21h-26.33v9.99h23.85v13.21h-23.85v21.38H10.1V10.98h42.59Z"/>
  <path class="st0" d="M65.24,7.26c4.79,0,8.67,3.88,8.67,8.67,0,5.12-3.88,9-8.67,9-5.04,0-9-3.88-9-9,0-4.79,3.96-8.67,9-8.67ZM73.08,27.49v41.27h-16.09V27.49h16.09Z"/>
  <path class="st0" d="M100.15,57.53c4.04,0,6.03-.99,6.03-3.63h16.26c-1.49,8.42-8.01,15.68-23.11,15.68-13.04,0-22.29-8.01-22.29-21.46s9.24-21.54,22.29-21.54c15.76,0,23.11,8.25,23.19,21.21v3.63h-28.89c.74,5.03,3.22,6.11,6.52,6.11ZM100.15,38.63c-3.22,0-5.78,1.57-6.52,6.19h12.54c-.58-4.62-2.64-6.19-6.03-6.19Z"/>
  <path class="st0" d="M148.02,68.75h-9.99c-8.09,0-11.47-3.96-11.47-11.8V10.98h16.09v39.53c0,3.96,1.16,5.2,4.79,5.2h.58v13.04Z"/>
  <path class="st0" d="M168.91,26.66c5.94,0,10.48,2.39,13.29,6.6V10.98h16.09v57.77h-16.09v-5.78c-2.81,4.21-7.35,6.6-13.29,6.6-11.64,0-19.07-8.83-19.07-21.46s7.43-21.46,19.07-21.46ZM182.19,50.51v-4.79c0-3.22-3.71-6.02-8.01-6.02s-8.09,3.05-8.09,8.42,3.71,8.42,8.09,8.42,8.01-2.81,8.01-6.03Z"/>
  <path class="st0" d="M219.34,10.98v30.13h3.14l7.35-13.62h18.65l-11.97,19.4,14.36,21.87h-19.07l-8.83-15.27h-3.63v15.27h-16.09V10.98h16.09Z"/>
  <path class="st0" d="M261.35,7.26c4.79,0,8.67,3.88,8.67,8.67,0,5.12-3.88,9-8.67,9-5.04,0-9-3.88-9-9,0-4.79,3.96-8.67,9-8.67ZM269.19,27.49v41.27h-16.09V27.49h16.09Z"/>
  <path class="st0" d="M277.69,27.49v-9.9h16.09v9.9h9.82v13.04h-9.82v11.72c0,3.47,1.49,3.96,4.54,3.96h5.28v12.54h-11.72c-9,0-14.2-4.21-14.2-12.96v-15.27h-4.79v-13.04h4.79Z"/>
</svg>